<svg width="39" height="36" viewBox="0 0 39 36" fill="none" xmlns="http://www.w3.org/2000/svg">
<path d="M34.7935 9.47266H3.85074C3.11554 9.47266 2.51953 10.082 2.51953 10.8336V33.7999C2.51953 34.5515 3.11554 35.1608 3.85074 35.1608H34.7935C35.5287 35.1608 36.1247 34.5515 36.1247 33.7999V10.8336C36.1247 10.082 35.5287 9.47266 34.7935 9.47266Z" fill="#4989F5"/>
<path d="M34.4059 9.27734H4.20272C3.26711 9.27734 2.53906 16.6797 2.53906 17.6361L19.0792 35.1585H34.4059C35.3444 35.1559 36.1045 34.3788 36.1071 33.4194V11.0161C36.1043 10.0568 35.3442 9.27996 34.4059 9.27734Z" fill="url(#paint0_linear_14610_63309)"/>
<path d="M10.1953 13.7735H19.7968V0.890625H11.633L10.1953 13.7735Z" fill="#3C4BA6"/>
<path d="M29.3945 13.7735H19.793V0.890625H27.9568L29.3945 13.7735ZM36.1234 3.33273L36.1353 3.37664C36.1325 3.36114 36.1267 3.34675 36.1234 3.33273Z" fill="#7BABF7"/>
<path d="M36.1317 3.37664L36.1198 3.33273C35.8154 1.90772 34.5817 0.891548 33.1549 0.890625H27.9531L29.3897 13.7738H38.9912L36.1317 3.37664Z" fill="#3F51B5"/>
<path d="M3.46498 3.32812L3.45312 3.37204C3.456 3.35654 3.46175 3.34215 3.46498 3.32812Z" fill="#7BABF7"/>
<path d="M3.45116 3.37664L3.46307 3.33273C3.76747 1.90772 5.00122 0.891548 6.42798 0.890625H11.6301L10.1913 13.7738H0.589844L3.45116 3.37664Z" fill="#7BABF7"/>
<path fill-rule="evenodd" clip-rule="evenodd" d="M10.2094 13.7695C10.2094 16.4785 8.06118 18.6746 5.41132 18.6746C2.76145 18.6746 0.613281 16.4785 0.613281 13.7695H10.2094Z" fill="#709BE0"/>
<path fill-rule="evenodd" clip-rule="evenodd" d="M19.807 13.7695C19.807 16.4785 17.6588 18.6746 15.009 18.6746C12.3591 18.6746 10.2109 16.4785 10.2109 13.7695H19.807Z" fill="#3C4BA6"/>
<path fill-rule="evenodd" clip-rule="evenodd" d="M29.4008 13.7695C29.4008 16.4785 27.2526 18.6746 24.6027 18.6746C21.9529 18.6746 19.8047 16.4785 19.8047 13.7695H29.4008Z" fill="#709BE0"/>
<path fill-rule="evenodd" clip-rule="evenodd" d="M38.9984 13.7695C38.9984 16.4785 36.8503 18.6746 34.2004 18.6746C31.5505 18.6746 29.4023 16.4785 29.4023 13.7695H38.9984Z" fill="#3C4BA6"/>
<path d="M34.2052 27.0614C34.1882 26.8278 34.1601 26.6146 34.12 26.3422H28.8861C28.8861 27.0906 28.8861 27.9072 28.8832 28.6559H31.9153C31.8509 29.0049 31.7196 29.3373 31.5292 29.6343C31.3387 29.9312 31.0927 30.1867 30.8053 30.3862C30.8053 30.3862 30.8053 30.3733 30.8032 30.3729C30.4321 30.622 30.014 30.7888 29.5759 30.8626C29.1367 30.9447 28.6864 30.9427 28.2479 30.8567C27.8027 30.7625 27.3812 30.5757 27.0095 30.308C26.4609 29.9103 26.0378 29.3575 25.792 28.7175C25.7732 28.6677 25.7559 28.6175 25.7382 28.5666V28.5611L25.7429 28.5574C25.5044 27.8416 25.5037 27.0654 25.7411 26.3492C25.9083 25.8469 26.1835 25.3891 26.5464 25.0097C27.3978 24.1094 28.6699 23.7708 29.8427 24.1322C30.2924 24.2732 30.7033 24.5205 31.0421 24.854L32.0651 23.8082C32.2456 23.6219 32.4329 23.4415 32.6065 23.2488C32.0878 22.7542 31.479 22.3688 30.8147 22.1145C29.6058 21.6664 28.2833 21.6545 27.0669 22.0809C27.0246 22.0957 26.9824 22.1111 26.9406 22.127C25.6282 22.6314 24.5486 23.6205 23.915 24.899C23.6913 25.3516 23.5283 25.8329 23.4306 26.3301C22.8512 29.2737 24.6082 32.1712 27.4448 32.9501C28.3721 33.204 29.3579 33.1977 30.2924 32.9807C31.1415 32.7847 31.9266 32.3677 32.5715 31.77C33.2443 31.1371 33.7266 30.294 33.9792 29.3984C34.1905 28.6394 34.267 27.848 34.2052 27.0614Z" fill="white"/>
<defs>
<linearGradient id="paint0_linear_14610_63309" x1="2.53906" y1="22.2177" x2="36.1067" y2="22.2177" gradientUnits="userSpaceOnUse">
<stop offset="0.03" stop-color="#4079D8"/>
<stop offset="1" stop-color="#4989F5"/>
</linearGradient>
</defs>
</svg>
