<svg class="" fill="#103558" xmlns="http://www.w3.org/2000/svg" width="93" height="31.428" viewBox="0 0 93 31.428">
    <path
        d="M24.591 4.079c-.027-1.454-.8-2.793-2.284-2.793-1.389 0-1.779 1.373-1.728 2.863.086 2.554 4.058 2.488 4.012-.07ZM14.506 1.467A10.454 10.454 0 0 0 7.527.078a10.231 10.231 0 0 0-4.163 1.273A7.983 7.983 0 0 0 .687 3.527a3.059 3.059 0 0 0-.679 1.678q.052.312.567.266a2.387 2.387 0 0 0 1.08-.417c.374-.247.8-.517 1.277-.81a9.762 9.762 0 0 1 4.317-1.4 6.2 6.2 0 0 1 3.831.664 3.781 3.781 0 0 1 1.755 2.758q.486 2.928-.764 4.313a3.166 3.166 0 0 1-1.25.864 12.918 12.918 0 0 1-1.323.424c-.374.1-.679.189-.93.282-.629.143-1.181.224-1.655.289l.023-.5q.133-2.755.081-4.483a15.276 15.276 0 0 0-.212-1.975c-.123-.741-.3-1.1-.529-1.076a1.138 1.138 0 0 0-.6.228Q3.755 6.021 3.014 12.9a26.3 26.3 0 0 0 .023 6.929 13.029 13.029 0 0 0 .467 2.022.861.861 0 0 0 .964.648q3.293-.3 3.013-1.975l-.6-5.347c2.623-.729 5.567-.918 7.809-2.65.031-.023.058-.046.085-.069a6.292 6.292 0 0 0 1.355-1.425 4.576 4.576 0 0 0 .567-.957 6.708 6.708 0 0 0 .633-4.232 6.313 6.313 0 0 0-2.824-4.377ZM32.681 15.344a92.333 92.333 0 0 0 2.859-3.7 1.912 1.912 0 0 0-.174-2.527s-1.466-1.358-4.5 3.653c0 0 0 .008-.008.008-.934-1.335-1.8-2.527-2.458-3.326a2.149 2.149 0 0 0-1.933-1c-2.554.17-.4 4.209.332 5.378a23.7 23.7 0 0 1 1.443 2.346c-2.361 3.214-4.653 3.4-5.189 3.233-.621-.193-1.092-.91-.729-3.9l.054-.3c.1-.586.174-1.115.231-1.593v-.031a12.981 12.981 0 0 0 .147-2.427 3.883 3.883 0 0 0-.5-1.7q-.573-1.123-1.408-1.123-.758 0-1.354 1.073c-.023.042-.05.089-.073.135-1.508 2.65-1.682 7.326-1.651 9.494a3.451 3.451 0 0 0 2.878 3.642 7.824 7.824 0 0 0 3.036-.1 7.418 7.418 0 0 0 2.218-.81s0 0 .008 0a17.156 17.156 0 0 0 3.835-3.16c1.451 2.33 3.3 4.278 5.224 3.669a5.374 5.374 0 0 0 .505-.189 2.836 2.836 0 0 0 1.03-.679 1.855 1.855 0 0 0-.367-2.589 31.937 31.937 0 0 1-3.456-3.477ZM65.354 4.079c-.027-1.454-.8-2.793-2.284-2.793-1.389 0-1.779 1.373-1.728 2.863.088 2.554 4.058 2.488 4.012-.07ZM40.594 12.786c-1.007 0-1.485.729-1.655 1.7a6 6 0 0 0-.073 1.165 1.918 1.918 0 0 0 .042.309 1.749 1.749 0 0 0 1.046 1.366 1.984 1.984 0 0 0 2.924-1.744c-.028-1.453-.803-2.796-2.284-2.796Z">
    </path>
    <path
        d="M87.973 23.5c.054-.239.1-.475.147-.71.471-2.658 1.007-9.039 1.15-10.123a3.684 3.684 0 0 0-.718-3.248c-.9-.876-1.91-1.79-2.647-.417-1.042 1.941-.019 5.224-1.636 7.735-3.383 5.262-3.866 1.582-3.777.521.147-1.771.683-4.34.891-5.887.336-2.477-1.142-2.905-1.863-2.716s-1.254 1.269-1.659 2.45a34.463 34.463 0 0 0-.988 4.718 6.2 6.2 0 0 0-.293.424c-1.593 2.531-4.672 4.9-4.957 1.466 0-.212-.008-.413-.023-.6a29.865 29.865 0 0 1 .394-5.255 10.763 10.763 0 0 0 3.048-.421c.806-.293.968-1.161.968-1.944 0-.934-1.308-1.142-3.264-1.065.17-.613.355-1.238.579-1.883.4-1.146-.914-2.261-2.114-2.064a1.029 1.029 0 0 0-.228.073 1.718 1.718 0 0 0-1.146.957 12.278 12.278 0 0 0-1.2 3.333c-.239.042-.467.081-.66.12a2.4 2.4 0 0 0-1.69 1.6c-.181.81.312 1.231 1.755 1.246h.023a29.236 29.236 0 0 0-.394 4.556c-.694 1.188-2.928 3.04-3.866 3.04a1.223 1.223 0 0 1-.737-.231 1.076 1.076 0 0 1-.367-.833 17.716 17.716 0 0 1 .427-3.129 20.149 20.149 0 0 0 .386-4.055 3.884 3.884 0 0 0-.5-1.7q-.573-1.123-1.408-1.123-1.412 0-2.253 3.68a29.45 29.45 0 0 0-.733 5.671c-4.066 3.445-7.2 1.065-7.137-4.221.062-5.814 2.92-8.468 4.433-9.39s2.855-.853 2.886-1.323-.231-2.261-3.356-1.96-8.179 4.383-8.734 11.991 3.785 9.884 6.906 10a7.143 7.143 0 0 0 5.582-2.261 3.892 3.892 0 0 0 2.049 1.968 2.529 2.529 0 0 0 1.065.224 6.494 6.494 0 0 0 4.572-1.883 15.8 15.8 0 0 0 1.1-1.335c.231 1.991 2.708 5.76 8.333.745.127-.127.255-.251.374-.378.475 1.887 3.287 4.417 8.067.667l-.147 1.385a24.516 24.516 0 0 1-.228 1.481c-.583.012-1.181.039-1.8.077-5.88.366-7.847 3.187-7.18 5.347s3.422 3.329 6.879 2.122a8.656 8.656 0 0 0 4.853-4.95c3.569.027 5.872.417 5.864-.181-.001-1.254-1.984-2.033-5.028-2.311Zm-3.106-3.044c.031-.023.023-.015 0 0Zm-5.887 8.052c-.378-.2-1.431-1.906 4.271-2.38.12-.012.239-.019.355-.027-1.636 3.792-4.325 2.561-4.626 2.407Z">
    </path>
</svg>