<svg width="20" height="20" viewBox="0 0 20 20" fill="none" xmlns="http://www.w3.org/2000/svg">
<path d="M10.0013 1.66797C5.39893 1.66797 1.66797 5.39893 1.66797 10.0013C1.66797 14.6037 5.39893 18.3346 10.0013 18.3346C14.6037 18.3346 18.3346 14.6037 18.3346 10.0013C18.3346 5.39893 14.6037 1.66797 10.0013 1.66797Z" fill="#31B997"/>
<path fill-rule="evenodd" clip-rule="evenodd" d="M8.9528 7.50073C8.66336 7.97879 8.0231 8.14215 7.52274 7.86561C7.02238 7.58906 6.85139 6.97733 7.14084 6.49927C7.68217 5.60518 8.69653 5 9.86006 5C11.5942 5 13 6.34315 13 8C13 9.09773 12.2952 9.99398 11.43 10.5C10.7351 10.9065 11.1684 12 9.85732 12C9.27927 12 8.81068 11.5523 8.81068 11C8.81068 10.9649 8.81257 10.9302 8.81626 10.896C8.84529 10.3672 9.09211 9.93684 9.36086 9.62394C9.64468 9.29348 10.0178 9.02371 10.3032 8.86165C11.8906 7.96 9.95444 6.1154 8.9528 7.50073ZM9.85732 13C9.27928 13 8.81068 13.4477 8.81068 14C8.81068 14.5523 9.27928 15 9.85732 15C10.4354 15 10.904 14.5523 10.904 14C10.904 13.4477 10.4354 13 9.85732 13Z" fill="white"/>
</svg>
